# xmcd
#
# Track frame offsets: 
#        150
#        19730
#        37364
#        68535
#
# Disc length: 1341 seconds
#
# Revision: 0
# Processed by: cddbd v1.5.2PL0 Copyright (c) Steve Scherf et al.
# Submitted via: ExactAudioCopy v0.99pb5
#
DISCID=2f053b04
DTITLE=Pearl Handled Revolver - Two (Boxed Set)
DYEAR=2009
DGENRE=Blues
TTITLE0=Today Was The Day
TTITLE1=The Robin's Garden
TTITLE2=Peace By Piece
TTITLE3=God Won't Let My Baby In Tonight
EXTD=
EXTT0=
EXTT1=
EXTT2=
EXTT3=
PLAYORDER=
